<?xml version="1.0" encoding="utf-8"?>
<!-- Generator: Adobe Illustrator 16.0.3, SVG Export Plug-In . SVG Version: 6.00 Build 0)  -->
<!DOCTYPE svg PUBLIC "-//W3C//DTD SVG 1.1//EN" "http://www.w3.org/Graphics/SVG/1.1/DTD/svg11.dtd">
<svg version="1.1" id="Layer_1" xmlns="http://www.w3.org/2000/svg" xmlns:xlink="http://www.w3.org/1999/xlink" x="0px" y="0px"
	 width="633.48px" height="633.48px" viewBox="0 0 633.48 633.48" enable-background="new 0 0 633.48 633.48" xml:space="preserve">
<circle fill="#FFFFFF" cx="316.809" cy="316.809" r="316.809"/>
<g>
	<path d="M622.688,234.761c-21.897-81.722-74.31-150.024-147.578-192.325c-73.27-42.303-158.626-53.542-240.348-31.644
		C153.041,32.689,84.738,85.1,42.435,158.37c-42.302,73.269-53.54,158.625-31.642,240.348
		C32.69,480.438,85.101,548.743,158.37,591.045c73.269,42.303,158.627,53.539,240.349,31.642
		c81.722-21.897,150.025-74.308,192.326-147.576C633.348,401.84,644.586,316.482,622.688,234.761z M573.267,464.846
		c-32.501,56.293-80.825,97.867-136.138,122.396c0.02-2.184-1.12-4.307-3.188-5.411l-32.838-17.527
		c-1.58-7.867-2.824-15.814-3.736-23.822l24.271,18.583c2.674,2.047,6.516,1.546,8.572-1.119c2.061-2.667,1.56-6.487-1.115-8.535
		l-33.145-25.375c-0.271-4.872-0.43-9.729-0.451-14.567l20.429,19.869c2.416,2.351,6.286,2.306,8.642-0.1
		c2.36-2.408,2.313-6.262-0.105-8.609l-28.541-27.766c0.342-6.311,0.896-12.579,1.652-18.795l19.423,23.915
		c2.121,2.617,5.972,3.021,8.592,0.905c2.622-2.113,3.024-5.949,0.901-8.563l-26.44-32.563c0.847-4.663,1.812-9.289,2.888-13.88
		l16.033,25.227c1.807,2.843,5.58,3.689,8.427,1.89c2.847-1.801,3.692-5.564,1.884-8.408l-22.082-34.747
		c1.35-4.543,2.811-9.047,4.383-13.504l12.947,26.686c1.469,3.029,5.123,4.299,8.153,2.835c3.036-1.466,4.302-5.11,2.832-8.142
		l-17.921-36.932c1.869-4.444,3.841-8.843,5.928-13.177l9.99,28.368c1.116,3.177,4.603,4.85,7.778,3.732
		c3.181-1.113,4.852-4.592,3.733-7.768l-13.795-39.184c2.428-4.365,4.967-8.668,7.619-12.898l6.287,27.342
		c0.752,3.281,4.028,5.335,7.311,4.582c3.285-0.754,5.336-4.023,4.579-7.309l-8.864-38.555c2.982-4.188,6.092-8.287,9.297-12.311
		l3.279,28.743c0.38,3.345,3.405,5.749,6.753,5.366c3.348-0.382,5.751-3.401,5.368-6.75l-4.579-40.145
		c4.011-4.467,8.168-8.811,12.461-13.021l0.02,29.361c0.001,3.367,2.735,6.096,6.105,6.092c3.37-0.006,6.101-2.739,6.097-6.107
		l-0.027-40.631c4.613-4.023,9.365-7.9,14.248-11.625l-3.278,28.785c-0.384,3.349,2.024,6.367,5.372,6.742
		c3.348,0.379,6.373-2.027,6.753-5.373l4.529-39.766c4.488-3.027,9.077-5.924,13.757-8.699l-6.482,27.785
		c-0.767,3.281,1.275,6.557,4.558,7.314c3.283,0.762,6.566-1.283,7.33-4.563l8.985-38.52c4.856-2.511,9.795-4.894,14.827-7.131
		l-9.175,25.39c-1.146,3.164,0.498,6.657,3.67,7.794c3.172,1.139,6.672-0.508,7.815-3.673l12.915-35.731
		c3.533-1.33,7.104-2.588,10.711-3.78l-11.703,23.251c-1.513,3.006-0.297,6.669,2.719,8.172c3.014,1.509,6.688,0.289,8.199-2.718
		l14.068-27.954C622.347,313.462,614.079,394.156,573.267,464.846z M409.954,597.736c-1.924-5.824-3.651-11.717-5.202-17.658
		l21.795,11.631C421.075,593.889,415.538,595.889,409.954,597.736z M238.575,31.188l-16.593,25.273
		c-1.847,2.813-1.068,6.604,1.746,8.46c2.811,1.86,6.591,1.084,8.436-1.73L246.45,41.43c0.772,3.72,1.467,7.441,2.082,11.167
		l-24.489,29.048c-2.17,2.573-1.845,6.428,0.728,8.605c2.571,2.179,6.418,1.856,8.585-0.718l17.4-20.642
		c0.58,5.475,0.982,10.945,1.237,16.406l-28.867,27.043c-2.458,2.301-2.587,6.165-0.285,8.628c2.297,2.464,6.155,2.596,8.613,0.289
		l20.822-19.505c-0.066,5.438-0.277,10.862-0.655,16.26l-32.176,23.808c-2.707,2.002-3.281,5.825-1.276,8.536
		c1.999,2.712,5.818,3.287,8.525,1.281l23.29-17.233c-0.787,6.091-1.767,12.145-2.942,18.149l-35.203,20.295
		c-2.918,1.681-3.922,5.411-2.24,8.333c1.681,2.921,5.41,3.924,8.327,2.241l25.44-14.662c-1.502,5.823-3.185,11.595-5.046,17.303
		l-37.057,16.105c-3.091,1.343-4.506,4.934-3.163,8.024c1.342,3.09,4.938,4.509,8.024,3.165l26.531-11.531
		c-1.881,4.787-3.875,9.528-6.012,14.206l-37.823,11.6c-3.221,0.988-5.028,4.398-4.037,7.62c0.988,3.22,4.403,5.029,7.622,4.041
		l26.822-8.227c-2.336,4.413-4.793,8.762-7.359,13.048l-40.833,7.646c-3.31,0.617-5.488,3.805-4.863,7.117
		c0.624,3.31,3.814,5.493,7.125,4.87l29.563-5.535c-2.71,3.978-5.533,7.881-8.449,11.724l-40.944,2.946
		c-3.361,0.242-5.884,3.161-5.635,6.523c0.248,3.356,3.172,5.885,6.533,5.644l29.583-2.129c-3.074,3.59-6.241,7.104-9.501,10.547
		l-41.136-1.75c-3.365-0.145-6.203,2.466-6.338,5.835c-0.136,3.364,2.485,6.21,5.85,6.354l29.863,1.272
		c-3.437,3.227-6.961,6.375-10.574,9.438l-41.422-6.616c-3.328-0.532-6.448,1.735-6.966,5.063c-0.521,3.327,1.753,6.459,5.08,6.987
		l30.424,4.863c-5.005,3.764-10.157,7.376-15.451,10.829L85.46,324.906c-3.241-0.92-6.602,0.967-7.508,4.214
		c-0.905,3.244,0.991,6.616,4.233,7.532l27.424,7.759c-4.201,2.399-8.485,4.692-12.841,6.893l-38.549-16.017
		c-3.112-1.293-6.67,0.184-7.95,3.302c-1.28,3.114,0.207,6.689,3.317,7.983L81.815,358.3c-7.39,3.211-14.894,6.11-22.499,8.676
		L27.72,347.301c-1.732-1.079-3.786-1.167-5.534-0.443c-6.201-59.898,5.685-122.201,38.028-178.223
		C100.762,98.405,165.925,51.069,238.575,31.188z M23.715,359.173l20.12,12.53c-5.688,1.563-11.418,2.955-17.185,4.168
		C25.519,370.335,24.529,364.77,23.715,359.173z M30.302,391.587c6.372-1.348,12.697-2.898,18.974-4.653l-13.759,22.344
		C33.597,403.434,31.858,397.535,30.302,391.587z M39.625,420.997c1.891-0.127,3.696-1.12,4.767-2.861l22.64-36.767
		c5.818-2.021,11.586-4.218,17.288-6.6l-9.444,23.01c-1.281,3.118,0.204,6.691,3.317,7.985c3.111,1.292,6.669-0.184,7.95-3.302
		l14.355-34.982c0.037-0.019,0.071-0.034,0.107-0.051c5.441-2.659,10.762-5.483,15.977-8.436l-7.247,25.996
		c-0.906,3.248,0.988,6.62,4.231,7.536c3.243,0.917,6.604-0.97,7.508-4.214l10.751-38.561c4.554-2.951,9.02-6.008,13.375-9.179
		l-3.804,24.304c-0.522,3.33,1.752,6.459,5.08,6.991c3.326,0.53,6.446-1.736,6.967-5.065l5.813-37.133
		c4.143-3.411,8.188-6.924,12.121-10.537l-1.023,25.533c-0.135,3.366,2.481,6.211,5.85,6.354c3.365,0.142,6.202-2.468,6.336-5.835
		l1.542-38.44c3.533-3.657,6.962-7.404,10.294-11.224l1.902,25.742c0.249,3.359,3.172,5.887,6.533,5.645
		c3.36-0.24,5.883-3.162,5.634-6.52l-2.845-38.514c3.001-3.881,5.895-7.838,8.698-11.855l4.709,24.983
		c0.625,3.311,3.814,5.493,7.126,4.87c3.31-0.618,5.489-3.805,4.864-7.117l-7.059-37.438c3.274-5.332,6.384-10.763,9.318-16.284
		l8.053,26.191c0.991,3.222,4.402,5.031,7.623,4.043c3.222-0.987,5.028-4.399,4.039-7.619l-11.844-38.527
		c2.083-4.547,4.045-9.149,5.903-13.798l10.575,24.328c1.341,3.093,4.934,4.509,8.024,3.166c3.089-1.343,4.504-4.934,3.161-8.024
		l-15.68-36.071c1.922-5.77,3.671-11.602,5.239-17.486l12.993,22.566c1.682,2.921,5.41,3.925,8.328,2.244
		c2.917-1.683,3.922-5.415,2.239-8.335l-19.487-33.847c1.297-6.369,2.392-12.79,3.275-19.253l15.683,21.249
		c2.003,2.71,5.818,3.286,8.525,1.281c2.708-2.003,3.279-5.826,1.279-8.535l-23.595-31.963c0.428-5.694,0.693-11.411,0.791-17.145
		l18.327,19.63c2.299,2.465,6.154,2.594,8.613,0.292c2.458-2.301,2.585-6.166,0.285-8.629l-27.459-29.416
		c-0.276-6.271-0.747-12.551-1.423-18.838l21.706,18.389c2.575,2.177,6.417,1.854,8.588-0.722c2.169-2.572,1.843-6.426-0.727-8.604
		l-32.095-27.186c-0.717-4.183-1.527-8.365-2.427-12.541l24.517,16.201c2.813,1.857,6.589,1.082,8.438-1.733
		c1.849-2.816,1.067-6.603-1.745-8.461L267.184,24.84c65.717-11.215,135.551-0.486,197.661,35.373
		c62.084,35.844,106.281,90.926,129.435,153.413l-28.469-14.225c-3.016-1.507-6.688-0.29-8.201,2.719
		c-1.515,3.008-0.299,6.667,2.717,8.174l26.291,13.134c-4.067,1.309-8.094,2.697-12.075,4.168l-39.592-14.204
		c-3.173-1.136-6.671,0.508-7.815,3.674c-1.145,3.168,0.499,6.657,3.669,7.798l26.779,9.604c-5.783,2.557-11.458,5.291-17.025,8.188
		l-39.206-9.073c-3.282-0.761-6.565,1.284-7.329,4.563c-0.765,3.278,1.277,6.554,4.56,7.313l26.164,6.058
		c-4.917,2.951-9.736,6.04-14.452,9.256l-39.479-4.452c-3.349-0.378-6.372,2.028-6.753,5.376c-0.381,3.347,2.025,6.363,5.374,6.742
		l26.243,2.958c-5.154,3.995-10.169,8.154-15.034,12.462l-39.058,0.047c-3.369,0.004-6.1,2.739-6.098,6.107
		c0.004,3.367,2.735,6.094,6.106,6.089l26.042-0.032c-4.313,4.303-8.489,8.734-12.525,13.283l-39.08,4.455
		c-3.348,0.383-5.75,3.403-5.367,6.75c0.38,3.348,3.401,5.75,6.753,5.367l26.355-3.006c-3.096,3.93-6.101,7.934-8.998,12.011
		l-39.287,9.006c-3.284,0.753-5.335,4.023-4.581,7.308c0.756,3.282,4.03,5.332,7.315,4.58l26.709-6.121
		c-3.313,5.3-6.462,10.707-9.442,16.213l-35.951,12.605c-3.18,1.114-4.85,4.596-3.732,7.771c1.119,3.179,4.604,4.851,7.783,3.737
		l23.99-8.413c-2.077,4.433-4.057,8.918-5.918,13.46l-34.776,16.793c-3.033,1.462-4.302,5.108-2.831,8.137
		c1.47,3.033,5.122,4.301,8.155,2.838l23.245-11.228c-1.641,4.798-3.174,9.641-4.572,14.53l-32.521,20.555
		c-2.846,1.799-3.689,5.561-1.883,8.404c1.807,2.846,5.579,3.689,8.428,1.891l21.602-13.655c-1.164,5.216-2.182,10.472-3.065,15.767
		l-29.251,23.602c-2.623,2.116-3.027,5.949-0.904,8.565c2.125,2.616,5.971,3.021,8.595,0.903l19.147-15.449
		c-0.571,5.36-0.984,10.754-1.262,16.173l-28.021,28.593c-2.357,2.406-2.311,6.258,0.105,8.609c2.415,2.35,6.283,2.303,8.643-0.104
		l18.892-19.277c0.05,5.996,0.267,12.014,0.683,18.058c0.002,0.038,0.008,0.077,0.01,0.115l-23.12,29.926
		c-2.061,2.667-1.56,6.487,1.115,8.535c2.675,2.05,6.513,1.548,8.573-1.12l15.207-19.684c0.787,6.129,1.767,12.221,2.928,18.271
		l-20.521,37.99c-1.082,2.007-0.899,4.332,0.238,6.126c-65.19,10.714-134.319-0.139-195.863-35.671
		C106.931,537.641,62.894,483.012,39.625,420.997z M375.969,606.811l12.869-23.826c1.678,6.535,3.564,13.013,5.672,19.418
		C388.38,604.07,382.194,605.537,375.969,606.811z"/>
</g>
</svg>
