<svg xmlns="http://www.w3.org/2000/svg" xmlns:xlink="http://www.w3.org/1999/xlink" version="1.1" x="0px" y="0px" viewBox="0 0 24 30" enable-background="new 0 0 24 24" xml:space="preserve"><path d="M22.535,11.698h-1.529v-1.177c0-0.579-0.471-1.049-1.05-1.049h-1.531v-0.97c0-0.578-0.469-1.048-1.048-1.048h-1.831  c-0.578,0-1.048,0.47-1.048,1.048v3.196H9.563V8.502c0-0.578-0.471-1.048-1.049-1.048H6.684c-0.578,0-1.049,0.47-1.049,1.048v0.97  H4.104c-0.579,0-1.048,0.471-1.048,1.049v1.177H1.523c-0.303,0-0.549,0.245-0.549,0.549v2.456c0,0.303,0.246,0.549,0.549,0.549  h1.532v1.218c0,0.579,0.47,1.05,1.048,1.05h1.531v0.969c0,0.579,0.471,1.049,1.049,1.049h1.831c0.578,0,1.049-0.47,1.049-1.049  v-3.236h4.935v3.236c0,0.579,0.47,1.049,1.048,1.049h1.831c0.579,0,1.048-0.47,1.048-1.049V17.52h1.531  c0.579,0,1.05-0.471,1.05-1.05v-1.218h1.529c0.305,0,0.551-0.246,0.551-0.549v-2.456C23.086,11.943,22.84,11.698,22.535,11.698z   M2.073,14.153v-1.357h0.982v1.357H2.073z M4.154,16.421V10.57h1.481v5.851H4.154z M8.464,18.438H6.733V16.47v-5.948V8.553h1.731  V18.438z M9.563,14.153v-1.357h4.935v1.357H9.563z M17.327,18.438h-1.731V8.553h1.731v1.969v5.948V18.438z M19.906,16.421h-1.481  V10.57h1.481V16.421z M21.986,14.153h-0.98v-1.357h0.98V14.153z"/><text x="0" y="39" fill="#000000" font-size="5px" font-weight="bold" font-family="'Helvetica Neue', Helvetica, Arial-Unicode, Arial, Sans-serif">Created by jhon</text><text x="0" y="44" fill="#000000" font-size="5px" font-weight="bold" font-family="'Helvetica Neue', Helvetica, Arial-Unicode, Arial, Sans-serif">from the Noun Project</text></svg>