<?xml version="1.0" encoding="utf-8"?>
<!-- Generator: Adobe Illustrator 16.0.3, SVG Export Plug-In . SVG Version: 6.00 Build 0)  -->
<!DOCTYPE svg PUBLIC "-//W3C//DTD SVG 1.1//EN" "http://www.w3.org/Graphics/SVG/1.1/DTD/svg11.dtd">
<svg version="1.1" id="Layer_1" xmlns="http://www.w3.org/2000/svg" xmlns:xlink="http://www.w3.org/1999/xlink" x="0px" y="0px"
	 width="612px" height="792px" viewBox="0 0 612 792" enable-background="new 0 0 612 792" xml:space="preserve">
<circle cx="310.581" cy="397.721" r="242.919"/>
<g>
	<path fill="#FFFFFF" d="M423.19,242.331c3.94,0.233,8.03,0.419,12.157,0.419c22.507,0,35.727-5.673,42.257-18.334
		c-28.479-27.687-63.544-47.763-102.317-58.7C394.869,186.706,411.266,212.893,423.19,242.331z"/>
	<path fill="#FFFFFF" d="M440.556,301.729c32.083,0.932,65.695,3.922,97.285,16.713c-9.371-26.737-23.169-51.303-41.092-73.167
		c-1.156-1.416-2.339-2.813-3.549-4.183c-11.096,15.521-30.809,23.672-57.405,23.672c-1.52,0-3.019-0.038-4.519-0.084l0.261,0.81
		l-0.111-0.019C435.077,277.117,438.114,289.255,440.556,301.729z"/>
	<path fill="#FFFFFF" d="M152.423,580.257c25.814-16.35,46.198-30.909,63.991-45.713c23.29-19.21,44.027-42.09,64.075-64.225
		l7.071-7.787c35.772-39.557,80.154-88.632,138.416-90.085c-0.354-16.89-1.631-33.183-3.773-48.555
		c-80.015,5.413-143.894,14.766-200.665,29.42c-35.317,9.12-63.395,19.154-88.334,31.59c-21.398,10.676-47.577,25.749-61.541,48.229
		c7.006,47.837,28.6,92.655,61.448,128.335C133.102,561.466,139.595,569.47,152.423,580.257z"/>
	<path fill="#FFFFFF" d="M69.101,401.96c15.231-15.027,35.661-28.116,63.283-40.646c27.221-12.344,57.349-22.498,92.088-30.985
		c57.209-13.936,118.974-22.852,194.014-27.966c-2.636-12.847-5.99-25.312-9.978-37.143c-4.183,0.587-8.579,0.875-13.079,0.875
		c-19.303,0-38.819-5.254-55.579-10.173c-11.394-3.372-22.563-7.518-33.37-11.551c-9.781-3.652-19.908-7.406-30.006-10.508
		c-49.178-15.036-99.857-14.906-143.26,0.531c-37.99,41.111-60.59,94.23-63.814,149.958l0.028,0.037l-0.149,2.18
		C69.045,391.581,68.98,396.715,69.101,401.96z"/>
	<path fill="#FFFFFF" d="M333.543,157.892c-7.564-0.717-15.232-1.09-22.833-1.09c-51.76,0-101.842,16.471-142.935,46.7
		c11.635-1.76,23.56-2.645,35.624-2.645c25.842,0,52.141,3.996,78.142,11.822c10.62,3.205,21.101,7.136,31.217,10.909
		c9.922,3.698,20.169,7.565,30.435,10.667c18.418,5.571,38.597,11.058,57.22,9.8C388.246,215.958,367.276,180.278,333.543,157.892z"
		/>
	<polygon fill="#FFFFFF" points="548.983,357.336 548.731,357.374 548.945,357.346 	"/>
	<path fill="#FFFFFF" d="M548.844,362.553h-0.019l-0.736-4.742l-0.047-0.326h-0.019c-0.605-3.577-1.322-7.155-2.104-10.704
		c-27.753-18.576-63.852-21.901-101.824-23.178c2.087,15.595,3.308,32.056,3.661,49.085c27.706,1.286,53.529,13.816,69.813,34.031
		c12.204,15.166,20.375,34.702,24.417,58.328C551.582,431.929,553.958,396.948,548.844,362.553z"/>
	<path fill="#FFFFFF" d="M516.601,522.76l0.047-0.308l1.473-2.19c1.778-3.063,3.391-5.951,4.938-8.839
		c1.173-35.95-3.699-61.579-15.278-80.621c-13.397-22.023-34.554-34.805-59.948-36.359c-0.195,18.678-1.882,37.58-3.53,55.914
		c-2.32,26.149-5.684,48.842-10.295,69.701c-9.512,43.076-24.361,77.871-45.237,105.857
		C442.381,607.18,487.387,570.997,516.601,522.76z"/>
	<path fill="#FFFFFF" d="M341.797,637.113c2.953-0.392,5.924-0.857,8.869-1.351c27.78-25.274,47.93-62.558,59.873-110.824
		c5.067-20.411,8.775-42.61,11.318-67.922c2.068-20.271,3.979-41.772,4.23-62.696c-49.524,1.705-89.191,45.845-121.22,81.431
		l-7.062,7.825c-20.839,22.983-42.387,46.738-66.935,67.318c-17.477,14.616-37.236,28.916-60.255,43.597
		c40.319,28.881,89.656,44.707,139.756,44.707C320.892,639.198,331.465,638.501,341.797,637.113z"/>
</g>
</svg>
